<svg width="40" height="40" viewBox="0 0 40 40" fill="none" xmlns="http://www.w3.org/2000/svg">
<path d="M20 8C13.3827 7.99999 7.99999 13.3827 8 20C8.00001 26.6173 13.3827 32 20 32C26.6173 32 32 26.6173 32 20C32 13.3827 26.6173 7.99999 20 8ZM20 9.71429C20.2906 9.71428 20.6264 9.8614 21.0346 10.3103C21.4428 10.7591 21.8683 11.4896 22.2299 12.4297C22.5832 13.3483 22.8769 14.4656 23.0854 15.7143H16.9146C17.1231 14.4656 17.4168 13.3483 17.7701 12.4297C18.1317 11.4896 18.5572 10.7591 18.9654 10.3103C19.3736 9.8614 19.7094 9.71428 20 9.71429ZM16.9632 10.1696C16.6686 10.6584 16.4041 11.2039 16.1696 11.8136C15.7373 12.9377 15.4002 14.2598 15.1752 15.7143H10.6551C11.8652 13.074 14.1509 11.0345 16.9632 10.1696ZM23.0352 10.1696C25.8482 11.0342 28.1346 13.0735 29.3449 15.7143H24.8231C24.5981 14.2598 24.2627 12.9376 23.8304 11.8136C23.5958 11.2037 23.3299 10.6586 23.0352 10.1696ZM10.0491 17.4286H14.971C14.8984 18.2576 14.8571 19.1153 14.8571 20C14.8571 20.8841 14.8985 21.7427 14.971 22.5714H10.0491C9.83783 21.7486 9.71429 20.8897 9.71429 20C9.71429 19.11 9.83771 18.2516 10.0491 17.4286ZM16.7037 17.4286H23.2963C23.3751 18.2556 23.4286 19.1077 23.4286 20C23.4286 20.8917 23.375 21.7447 23.2963 22.5714H16.7037C16.625 21.7447 16.5714 20.8917 16.5714 20C16.5714 19.1077 16.6249 18.2556 16.7037 17.4286ZM25.029 17.4286H29.9492C30.1607 18.2517 30.2857 19.1099 30.2857 20C30.2857 20.8898 30.1605 21.7486 29.9492 22.5714H25.029C25.1015 21.7427 25.1429 20.8841 25.1429 20C25.1429 19.1153 25.1016 18.2576 25.029 17.4286ZM10.6551 24.2857H15.1752C15.4002 25.7413 15.7372 27.0636 16.1696 28.1881C16.4038 28.7969 16.6674 29.3437 16.9615 29.832C14.1498 28.9669 11.8649 26.9257 10.6551 24.2857ZM16.9146 24.2857H23.0854C22.8768 25.5354 22.5834 26.6529 22.2299 27.572C21.8683 28.512 21.4428 29.2425 21.0346 29.6914C20.6264 30.1403 20.2906 30.2857 20 30.2857C19.7094 30.2857 19.3736 30.1403 18.9654 29.6914C18.5572 29.2425 18.1317 28.512 17.7701 27.572C17.4166 26.6529 17.1232 25.5354 16.9146 24.2857ZM24.8231 24.2857H29.3449C28.1348 26.9262 25.8493 28.9672 23.0368 29.832C23.331 29.3436 23.5961 28.7971 23.8304 28.1881C24.2628 27.0636 24.5981 25.7413 24.8231 24.2857Z" fill="white"/>
</svg>
