<svg width="40" height="40" viewBox="0 0 40 40" fill="none" xmlns="http://www.w3.org/2000/svg">
<path d="M20.0002 7.25C20.6021 7.25 21.0902 7.74425 21.0902 8.35394V19.646C21.0902 20.2557 20.6021 20.75 20.0002 20.75C19.3982 20.75 18.9102 20.2557 18.9102 19.646V8.35394C18.9102 7.74425 19.3982 7.25 20.0002 7.25Z" fill="#F6F6F6"/>
<path d="M26.7577 10.8337C26.2603 10.4947 25.5934 10.6881 25.3009 11.2142C25.0085 11.7402 25.2023 12.399 25.6927 12.7479C27.1568 13.7895 28.3132 15.2175 29.0264 16.8818C29.8834 18.8814 30.0521 21.1089 29.506 23.2148C28.96 25.3206 27.7302 27.1856 26.0096 28.5169C24.289 29.8482 22.1751 30.5705 19.9996 30.5704C17.8241 30.5703 15.7102 29.8478 13.9898 28.5164C12.2693 27.1849 11.0396 25.3199 10.4938 23.214C9.94792 21.1081 10.1168 18.8806 10.9739 16.881C11.6873 15.2168 12.8438 13.7889 14.308 12.7475C14.7984 12.3986 14.9923 11.7398 14.6999 11.2137C14.4075 10.6876 13.7405 10.4942 13.2431 10.8331C11.3599 12.1162 9.87424 13.914 8.97055 16.0223C7.92323 18.4656 7.71688 21.1876 8.38387 23.7609C9.05087 26.3342 10.5535 28.6132 12.6558 30.2401C14.7581 31.8671 17.3412 32.7499 19.9995 32.75C22.6578 32.7501 25.241 31.8675 27.3434 30.2407C29.4459 28.614 30.9487 26.3351 31.6159 23.7618C32.2831 21.1886 32.077 18.4666 31.0299 16.0232C30.1263 13.9149 28.6408 12.1169 26.7577 10.8337Z" fill="#F6F6F6"/>
</svg>
