<svg width="127" height="24" viewBox="0 0 127 24" fill="none" xmlns="http://www.w3.org/2000/svg">
<g clip-path="url(#clip0_10_947)">
<path d="M63.8856 4.40601H59.5164V23.7929H63.8856V4.40601Z" fill="white"/>
<path d="M74.1977 19.7318C72.7799 19.7318 71.4597 19.1889 70.4818 18.2016C69.4846 17.1975 68.9368 15.8518 68.9393 14.4123C68.941 12.8531 69.577 11.3564 70.7275 10.1989C71.8713 9.04987 73.3579 8.41617 74.912 8.41617C76.3433 8.41617 77.6729 8.95959 78.6511 9.94642C79.6324 10.9368 80.1727 12.2808 80.171 13.7332C80.1689 15.3097 79.5407 16.8059 78.4055 17.9485C77.2767 19.0817 75.7431 19.7318 74.1977 19.7318ZM85.2444 19.4876H83.0969C84.0466 17.9772 84.5588 16.2326 84.5607 14.414C84.5655 11.7836 83.4618 9.16168 81.5352 7.22219C79.5687 5.24008 76.9704 4.14819 74.2198 4.14819C71.5916 4.14819 69.1591 5.15359 67.3778 6.96883C65.5716 8.78534 64.5732 11.1879 64.5698 13.7332C64.5665 16.3648 65.6691 18.9855 67.5816 20.9125C69.4996 22.8742 72.1633 23.9994 74.8892 23.9994C75.5773 23.9994 76.2534 23.9285 76.9088 23.7929L85.244 23.7804V19.4876H85.2444Z" fill="white"/>
<path d="M43.5507 4.40682V7.69682C43.4085 7.53481 43.2632 7.37555 43.1107 7.22176C41.1442 5.23987 38.5459 4.14819 35.7949 4.14819C34.415 4.14819 33.0905 4.42792 31.884 4.95403V10.6632C32.015 10.5029 32.1543 10.3481 32.303 10.1989C33.4463 9.04987 34.9329 8.41617 36.4866 8.41617C37.9187 8.41617 39.2479 8.95958 40.2261 9.94641C41.2075 10.9368 41.7477 12.2808 41.746 13.7332C41.7443 15.3092 41.1161 16.8055 39.9802 17.9484C38.8516 19.0815 37.3186 19.7316 35.7736 19.7316C34.3553 19.7316 33.0354 19.1886 32.0568 18.201C31.9979 18.1417 31.9406 18.0807 31.8842 18.0185V22.9001C33.2991 23.6121 34.8709 23.9998 36.4651 23.9998C39.0798 23.9998 41.518 22.9978 43.3284 21.1783C45.1362 19.3627 46.1334 16.9601 46.1364 14.4139C46.1402 12.3935 45.4879 10.3799 44.3131 8.67501H48.938V23.7935H53.3075V8.67501H58.788V4.40703L43.5507 4.40682Z" fill="white"/>
<path d="M0 23.7929V4.40601H12.7215V8.65226H4.37556V11.9549H12.3462L12.3441 16.2214H4.37556V19.5462H12.7215V23.7929H0Z" fill="white"/>
<path d="M26.8176 23.7929L26.8206 13.6451L23.7276 18.2139H21.2961L17.8019 13.0768L17.7998 23.7929H13.4519L13.4544 4.40601H16.7183L22.1243 12.3431L27.5724 4.40601H31.1459L31.1434 23.7929H26.8176Z" fill="white"/>
<path d="M92.6917 2.27512C92.9567 2.19158 93.2756 2.14939 93.6475 2.14939C94.1313 2.14939 94.6034 2.21204 95.0645 2.33777C95.5248 2.4635 95.9459 2.64766 96.3273 2.88899L97.3322 0.837479C96.8947 0.567672 96.3739 0.360311 95.7691 0.216231C95.1643 0.0723617 94.5129 0 93.8152 0C92.8569 0 92.0264 0.144715 91.3237 0.433086C90.6208 0.721035 90.0791 1.12607 89.6975 1.64733C89.3158 2.16817 89.1252 2.78246 89.1252 3.48936C89.1252 3.92687 89.2112 4.29393 89.3836 4.592C89.5559 4.89008 89.7816 5.13415 90.0605 5.32464C90.3398 5.51576 90.6489 5.67355 90.9887 5.79928C91.3281 5.92501 91.6678 6.03217 92.0076 6.12056C92.347 6.20874 92.6565 6.2948 92.9358 6.37855C93.2147 6.46251 93.4402 6.56229 93.6127 6.67853C93.7844 6.79518 93.8707 6.95087 93.8707 7.14621C93.8707 7.32299 93.8055 7.47656 93.6754 7.60692C93.5448 7.7375 93.3545 7.83728 93.1031 7.9069C92.8518 7.97693 92.5493 8.01153 92.1958 8.01153C91.8232 8.01153 91.4513 7.9744 91.0792 7.89994C90.7071 7.82568 90.3417 7.71662 89.9837 7.57191C89.6253 7.42762 89.2787 7.25337 88.9442 7.04875L87.8552 9.11418C88.1531 9.30994 88.5111 9.48904 88.9298 9.65147C89.3488 9.81454 89.8135 9.94026 90.3257 10.0284C90.8375 10.117 91.3726 10.1611 91.9304 10.1611C92.8887 10.1611 93.7214 10.0168 94.4289 9.72847C95.136 9.4401 95.6803 9.0355 96.0617 8.51423C96.4431 7.99297 96.634 7.38374 96.634 6.6857C96.634 6.2581 96.5505 5.89948 96.3832 5.61111C96.2155 5.32274 95.9872 5.08331 95.6993 4.89219C95.4105 4.70191 95.0989 4.54812 94.7639 4.43189C94.4289 4.31523 94.0914 4.21313 93.752 4.12453C93.4121 4.03635 93.1005 3.95028 92.8166 3.86611C92.5327 3.78258 92.3074 3.68027 92.1401 3.55918C91.9724 3.43852 91.8888 3.28473 91.8888 3.09888C91.8888 2.92211 91.9559 2.76136 92.0911 2.61728C92.2262 2.47299 92.4263 2.35886 92.6917 2.27512Z" fill="#657F8F"/>
<path d="M104.602 0.195312L103.527 5.5689C103.425 6.11821 103.278 6.56227 103.087 6.90169C102.896 7.24153 102.659 7.48792 102.376 7.64171C102.092 7.79507 101.759 7.87207 101.378 7.87207C101.061 7.87207 100.789 7.82798 100.561 7.73938C100.333 7.6512 100.152 7.50902 100.017 7.31325C99.8821 7.11791 99.8006 6.87658 99.773 6.58779C99.7445 6.29942 99.7681 5.95979 99.8426 5.5689L100.917 0.195312H98.1537L97.0652 5.61088C96.888 6.52261 96.9346 7.32043 97.2044 8.00433C97.4742 8.68824 97.9375 9.21857 98.5933 9.59554C99.2492 9.97251 100.066 10.1609 101.043 10.1609C102.476 10.1609 103.625 9.78645 104.49 9.03736C105.355 8.28827 105.932 7.18816 106.221 5.73681L107.324 0.195525H104.602V0.195312Z" fill="#657F8F"/>
<path d="M105.747 9.96541H108.51L110.464 0.195801H107.701L105.747 9.96541Z" fill="#657F8F"/>
<path d="M125.924 2.33078L126.357 0.195312H110.823L110.376 2.38689H113.377L111.856 9.96534H114.62L116.141 2.38689H118.27L116.755 9.96534H124.584L125.031 7.82987H119.909L120.263 6.04354H124.612L125.017 3.9781H120.671L120.997 2.33078H125.924Z" fill="#657F8F"/>
</g>
<defs>
<clipPath id="clip0_10_947">
<rect width="126.357" height="24" fill="white"/>
</clipPath>
</defs>
</svg>
